<svg width="138" height="128" viewBox="0 0 138 128" fill="none" xmlns="http://www.w3.org/2000/svg">
<path d="M33.9785 8.75214C33.9785 3.91847 37.897 0 42.7307 0H95.2435C100.077 0 103.996 3.91847 103.996 8.75214V61.265C103.996 66.0986 100.077 70.0171 95.2435 70.0171H42.7307C37.897 70.0171 33.9785 66.0986 33.9785 61.265V8.75214Z" fill="url(#paint0_linear_802_508)"/>
<g filter="url(#filter0_d_802_508)">
<path d="M51.9599 24.6885L42.2583 34.3902C41.9165 34.7319 41.9165 35.286 42.2583 35.6278L52.5886 45.9384L63.5181 35.009L53.1976 24.6885C52.8558 24.3467 52.3017 24.3467 51.9599 24.6885Z" fill="url(#paint1_linear_802_508)"/>
<path d="M52.5791 45.9483L62.8996 56.2688C63.2413 56.6105 63.7955 56.6105 64.1372 56.2688L95.7175 24.6885C96.0592 24.3467 96.0592 23.7926 95.7175 23.4509L86.0158 13.7492C85.6741 13.4074 85.1199 13.4074 84.7782 13.7492L52.5791 45.9483Z" fill="url(#paint2_linear_802_508)"/>
</g>
<path d="M13.5371 119.307H9.22816C8.47581 119.307 8.09964 118.947 8.09964 118.227V92.4557C8.09964 92.0785 7.91155 91.8899 7.53538 91.8899H1.68758C0.969427 91.8899 0.610352 91.5298 0.610352 90.8097V87.3118C0.610352 86.5917 0.969427 86.2316 1.68758 86.2316H21.0777C21.7958 86.2316 22.1549 86.5917 22.1549 87.3118V90.8097C22.1549 91.5298 21.7958 91.8899 21.0777 91.8899H15.2299C14.8195 91.8899 14.6143 92.0785 14.6143 92.4557V118.227C14.6143 118.947 14.2552 119.307 13.5371 119.307Z" fill="#1E293B"/>
<path d="M34.741 119.307H33.5098C30.8082 119.307 28.7222 118.587 27.2517 117.146C25.7812 115.706 25.0459 113.631 25.0459 110.922V101.458C25.0459 98.7484 25.7812 96.6737 27.2517 95.2334C28.7222 93.7931 30.8082 93.073 33.5098 93.073H45.3593C46.1117 93.073 46.4878 93.4331 46.4878 94.1532V118.227C46.4878 118.947 46.1117 119.307 45.3593 119.307H41.0504C40.3323 119.307 39.9732 118.947 39.9732 118.227V116.529H39.768C39.3918 117.455 38.725 118.158 37.7674 118.638C36.8099 119.084 35.8011 119.307 34.741 119.307ZM39.9732 109.739V99.2971C39.9732 98.9199 39.768 98.7313 39.3576 98.7313H34.5358C33.4414 98.7313 32.672 98.9713 32.2274 99.4514C31.7829 99.8972 31.5606 100.669 31.5606 101.766V110.614C31.5606 111.711 31.7829 112.5 32.2274 112.98C32.672 113.426 33.4414 113.649 34.5358 113.649H36.4337C38.7934 113.649 39.9732 112.345 39.9732 109.739Z" fill="#1E293B"/>
<path d="M62.009 119.307H52.2627C51.5788 119.307 51.2368 118.947 51.2368 118.227V114.935C51.2368 114.557 51.3052 114.3 51.442 114.163C51.5788 113.991 51.8523 113.906 52.2627 113.906H60.8292C62.5049 113.906 63.3427 113.391 63.3427 112.363V112.105C63.3427 111.282 62.6417 110.494 61.2396 109.739L56.1612 106.91C54.4172 106.018 53.1347 105.058 52.314 104.029C51.4933 103.001 51.0829 101.68 51.0829 100.069C51.0829 97.6682 51.7155 95.9021 52.9809 94.7705C54.2462 93.6388 56.2296 93.073 58.9313 93.073H67.4978C68.1817 93.073 68.5237 93.4331 68.5237 94.1532V97.4967C68.5237 97.874 68.4553 98.1483 68.3185 98.3198C68.1817 98.4569 67.9081 98.5255 67.4978 98.5255H60.3676C58.6919 98.5255 57.854 98.9542 57.854 99.8115V100.069C57.854 100.823 58.5893 101.595 60.0598 102.383L65.2407 105.47C67.019 106.43 68.2672 107.424 68.9854 108.453C69.7035 109.448 70.0626 110.768 70.0626 112.414C70.0626 117.009 67.3781 119.307 62.009 119.307Z" fill="#1E293B"/>
<path d="M89.5797 93.073H94.5555C94.9658 93.073 95.2394 93.193 95.3762 93.4331C95.513 93.6731 95.4617 93.9818 95.2223 94.359L88.3999 105.624V105.83L95.5301 118.021C95.7353 118.364 95.7524 118.672 95.5814 118.947C95.4104 119.187 95.1026 119.307 94.6581 119.307H90.2466C89.6652 119.307 89.2377 119.238 88.9641 119.101C88.7248 118.964 88.4683 118.672 88.1947 118.227L81.68 106.756C81.3723 106.207 81.3723 105.641 81.68 105.058L87.8356 94.1018C88.2118 93.4159 88.7932 93.073 89.5797 93.073ZM80.0386 119.307H75.6784C74.9602 119.307 74.6011 118.947 74.6011 118.227V84.2255C74.6011 83.5054 74.9602 83.1453 75.6784 83.1453H80.0386C80.7567 83.1453 81.1158 83.5054 81.1158 84.2255V118.227C81.1158 118.947 80.7567 119.307 80.0386 119.307Z" fill="#1E293B"/>
<path d="M108.286 93.073H112.39C112.801 93.073 113.074 93.1587 113.211 93.3302C113.382 93.4674 113.467 93.7246 113.467 94.1018V97.6511C113.467 98.3712 113.108 98.7313 112.39 98.7313H108.286C107.91 98.7313 107.722 98.9199 107.722 99.2971V118.227C107.722 118.947 107.346 119.307 106.594 119.307H102.285C101.567 119.307 101.208 118.947 101.208 118.227V99.2971C101.208 98.9199 101.002 98.7313 100.592 98.7313H98.2324C97.5142 98.7313 97.1552 98.3712 97.1552 97.6511V94.1018C97.1552 93.6903 97.2235 93.4159 97.3603 93.2788C97.5313 93.1416 97.822 93.073 98.2324 93.073H100.592C101.002 93.073 101.208 92.8844 101.208 92.5072V91.5298C101.208 88.8207 101.909 86.746 103.311 85.3057C104.747 83.8654 106.816 83.1453 109.518 83.1453H112.442C112.852 83.1453 113.125 83.231 113.262 83.4025C113.399 83.5397 113.467 83.7969 113.467 84.1741V87.7234C113.467 88.4435 113.125 88.8036 112.442 88.8036H110.544C109.449 88.8036 108.697 89.0436 108.286 89.5237C107.91 89.9695 107.722 90.7411 107.722 91.8385V92.5072C107.722 92.8844 107.91 93.073 108.286 93.073Z" fill="#1E293B"/>
<path d="M121.188 128H117.905C117.221 128 116.879 127.623 116.879 126.868V123.422C116.879 122.668 117.221 122.29 117.905 122.29H118.983C121.137 122.29 122.59 121.982 123.343 121.364C124.129 120.781 124.728 119.633 125.138 117.918H122.419C121.77 117.918 121.342 117.558 121.137 116.838L115.135 94.1532C114.93 93.4331 115.187 93.073 115.905 93.073H120.47C121.154 93.073 121.582 93.4331 121.753 94.1532L126.164 113.134H126.369L130.73 94.1532C130.866 93.4331 131.294 93.073 132.012 93.073H136.321C137.176 93.073 137.518 93.4502 137.347 94.2047L131.089 119.307C130.336 122.153 129.174 124.314 127.6 125.788C126.027 127.263 123.89 128 121.188 128Z" fill="#1E293B"/>
<defs>
<filter id="filter0_d_802_508" x="34.0561" y="6.04365" width="69.8634" height="58.9239" filterUnits="userSpaceOnUse" color-interpolation-filters="sRGB">
<feFlood flood-opacity="0" result="BackgroundImageFix"/>
<feColorMatrix in="SourceAlpha" type="matrix" values="0 0 0 0 0 0 0 0 0 0 0 0 0 0 0 0 0 0 127 0" result="hardAlpha"/>
<feOffset dy="0.496615"/>
<feGaussianBlur stdDeviation="3.97292"/>
<feComposite in2="hardAlpha" operator="out"/>
<feColorMatrix type="matrix" values="0 0 0 0 0 0 0 0 0 0 0 0 0 0 0 0 0 0 0.24 0"/>
<feBlend mode="normal" in2="BackgroundImageFix" result="effect1_dropShadow_802_508"/>
<feBlend mode="normal" in="SourceGraphic" in2="effect1_dropShadow_802_508" result="shape"/>
</filter>
<linearGradient id="paint0_linear_802_508" x1="33.9785" y1="35.0085" x2="103.996" y2="35.0085" gradientUnits="userSpaceOnUse">
<stop stop-color="#2DD4BF"/>
<stop offset="1" stop-color="#0D9488"/>
</linearGradient>
<linearGradient id="paint1_linear_802_508" x1="47.7655" y1="28.883" x2="58.486" y2="40.0411" gradientUnits="userSpaceOnUse">
<stop stop-color="#F3F3F3"/>
<stop offset="1" stop-color="#BEBEBE"/>
</linearGradient>
<linearGradient id="paint2_linear_802_508" x1="90.3197" y1="17.9437" x2="57.7206" y2="51.0898" gradientUnits="userSpaceOnUse">
<stop stop-color="white"/>
<stop offset="1" stop-color="#D5D5D5"/>
</linearGradient>
</defs>
</svg>
